<?xml version="1.0" encoding="utf-8"?>
<!-- Generator: Adobe Illustrator 22.0.1, SVG Export Plug-In . SVG Version: 6.00 Build 0)  -->
<svg version="1.1" id="Layer_1" xmlns="http://www.w3.org/2000/svg" xmlns:xlink="http://www.w3.org/1999/xlink" x="0px" y="0px"
	 viewBox="0 0 482.4 127.3" style="enable-background:new 0 0 482.4 127.3;" xml:space="preserve">
<style type="text/css">
	.st0{fill:#C1CC46;}
</style>
<title>logo</title>
<g>
	<path d="M43.2,22h14.2c3.3,0,6.6,0.4,9.8,1.2c2.9,0.7,5.7,2,8.1,3.7c2.3,1.8,4.2,4.1,5.5,6.7c1.4,3.1,2.1,6.6,2,10
		c0.1,3.2-0.6,6.3-2,9.2c-1.3,2.6-3.1,4.9-5.3,6.7c-2.3,1.8-4.9,3.2-7.7,4.1c-3,0.9-6.1,1.4-9.2,1.4H43.2V22L43.2,22z M52.7,56.2
		h4.9c2.1,0,4.1-0.2,6.1-0.7c1.8-0.4,3.4-1.1,4.9-2.2c1.4-1.1,2.5-2.5,3.2-4.1c0.8-1.9,1.3-4.1,1.2-6.2c0-1.9-0.4-3.8-1.2-5.5
		c-0.8-1.5-1.8-2.8-3.2-3.9c-1.4-1-3-1.8-4.7-2.2c-1.8-0.5-3.8-0.8-5.7-0.8h-5.6L52.7,56.2L52.7,56.2z"/>
	<path d="M103.5,22h7.8L130,65h-10.7l-3.7-9.1H98.9L95.4,65H84.9L103.5,22z M107.1,34.5l-5.2,13.4h10.5L107.1,34.5z"/>
	<path d="M130.1,22h10.8l10.6,28.2h0.1L162.5,22h10.1l-17.7,43h-7.6L130.1,22z"/>
	<path d="M176.8,22h9.5v43h-9.5V22z"/>
	<path d="M195.2,22h14.2c3.3,0,6.6,0.4,9.9,1.2c2.9,0.7,5.7,2,8.1,3.7c2.3,1.8,4.2,4.1,5.5,6.7c1.4,3.1,2.1,6.6,2,10
		c0.1,3.2-0.6,6.3-2,9.2c-1.3,2.6-3.1,4.9-5.3,6.7c-2.3,1.8-4.9,3.2-7.7,4.1c-3,0.9-6.1,1.4-9.2,1.4h-15.5V22L195.2,22z M204.6,56.2
		h4.9c2.1,0,4.1-0.2,6.1-0.7c1.8-0.4,3.4-1.1,4.9-2.2c1.4-1.1,2.5-2.5,3.2-4.1c0.8-1.9,1.3-4.1,1.2-6.2c0-1.9-0.4-3.8-1.2-5.5
		c-0.8-1.5-1.8-2.8-3.2-3.9c-1.4-1-3-1.8-4.7-2.2c-1.8-0.5-3.8-0.8-5.7-0.8h-5.6L204.6,56.2L204.6,56.2z"/>
	<path d="M259.6,22h14.2c3.3,0,6.6,0.4,9.8,1.2c2.9,0.7,5.7,2,8.1,3.7c2.3,1.8,4.2,4.1,5.5,6.7c1.4,3.1,2.1,6.6,2,10
		c0.1,3.2-0.6,6.3-2,9.2c-1.2,2.6-3,4.9-5.3,6.7c-2.3,1.8-4.9,3.2-7.7,4.1c-3,0.9-6.1,1.4-9.2,1.4h-15.5V22L259.6,22z M269,56.2h4.9
		c2.1,0,4.1-0.2,6.1-0.7c1.8-0.4,3.4-1.1,4.9-2.2c1.4-1.1,2.5-2.5,3.3-4.1c0.8-1.9,1.3-4.1,1.2-6.2c0-1.9-0.4-3.8-1.2-5.5
		c-0.8-1.5-1.8-2.8-3.2-3.9c-1.4-1-3-1.8-4.7-2.2c-1.8-0.5-3.8-0.8-5.7-0.8H269L269,56.2L269,56.2z"/>
	<path d="M319.9,22h7.8l18.7,43h-10.7l-3.7-9.1h-16.7l-3.6,9.1h-10.5L319.9,22z M323.5,34.5l-5.2,13.4h10.5L323.5,34.5z"/>
	<path d="M346.4,22h10.8l10.6,28.2h0.1L378.8,22h10.1l-17.7,43h-7.6L346.4,22z"/>
	<path d="M393.1,22h9.5v43h-9.5V22z"/>
	<path d="M432.7,32.5c-0.8-1-1.9-1.8-3.1-2.2c-1.2-0.4-2.5-0.7-3.7-0.7c-0.7,0-1.4,0.1-2.1,0.2c-0.7,0.2-1.4,0.4-2.1,0.8
		c-0.6,0.3-1.2,0.8-1.6,1.4c-0.4,0.6-0.6,1.3-0.6,2.1c-0.1,1.2,0.5,2.3,1.5,3c1.1,0.8,2.4,1.4,3.7,1.8c1.5,0.5,3.1,1,4.8,1.5
		c1.7,0.5,3.3,1.2,4.8,2.1c1.5,0.9,2.7,2.1,3.7,3.6c1.1,1.8,1.6,3.9,1.5,6c0,2.2-0.4,4.3-1.3,6.3c-0.9,1.7-2.1,3.2-3.6,4.4
		c-1.6,1.2-3.4,2.1-5.3,2.6c-4.6,1.3-9.6,1.1-14.1-0.4c-2.5-0.9-4.7-2.3-6.6-4.2l6.7-7.4c1,1.3,2.2,2.3,3.7,3
		c2.1,1.1,4.6,1.3,6.9,0.8c0.7-0.2,1.5-0.4,2.1-0.8c0.6-0.3,1.1-0.8,1.5-1.4c0.4-0.6,0.6-1.3,0.6-2c0-1.2-0.5-2.4-1.5-3.1
		c-1.1-0.8-2.4-1.5-3.7-1.9c-1.5-0.5-3.1-1.1-4.9-1.6c-1.7-0.5-3.3-1.2-4.9-2.1c-1.5-0.9-2.8-2.1-3.7-3.5c-1.1-1.7-1.6-3.7-1.5-5.8
		c0-2.1,0.4-4.2,1.4-6.1c0.9-1.7,2.1-3.2,3.6-4.4c1.6-1.2,3.4-2.1,5.3-2.6c2-0.6,4.1-0.9,6.1-0.9c2.4,0,4.7,0.3,7,1
		c2.3,0.7,4.4,1.9,6.2,3.5L432.7,32.5z"/>
</g>
<path class="st0" d="M37.8,10.3h-6.5c-1.3-0.1-2.5,0.3-3.5,1.1c-1,0.8-1.7,1.8-2.2,2.9c-0.6,1.3-1,2.6-1.2,4c-0.2,1.5-0.4,3-0.4,4.5
	v21.7c0.2,2.9-0.2,5.8-1.2,8.5c-0.8,2.1-1.9,4-3.4,5.7c-1.2,1.4-2.5,2.5-4.1,3.4c-1.1,0.6-2.2,1.1-3.4,1.4v0.4
	c1.2,0.2,2.3,0.6,3.4,1.2c1.5,0.8,2.9,1.9,4.1,3.2c1.5,1.7,2.6,3.7,3.4,5.8c1,2.9,1.4,6,1.2,9.1v21.5c0,1.5,0.1,2.9,0.4,4.4
	c0.2,1.4,0.6,2.7,1.2,4c0.5,1.1,1.3,2.1,2.2,2.9c1,0.7,2.3,1.1,3.5,1.1h6.5v10.3H27.1c-1.9,0-3.7-0.5-5.4-1.3
	c-1.9-0.9-3.5-2.3-4.8-3.9c-1.6-2-2.8-4.3-3.5-6.8c-1-3.2-1.4-6.5-1.4-9.9V86.2c-0.2-5.3-1.4-9.4-3.7-12.3c-2.3-3-5-4.5-8.3-4.4
	V58.2c3.2,0,6-1.5,8.3-4.4s3.5-7.1,3.7-12.3V18.8c-0.1-2.8,0.4-5.5,1.4-8.1c0.8-2.2,2-4.2,3.5-5.9c1.3-1.5,3-2.7,4.8-3.6
	C23.4,0.4,25.2,0,27.1,0h10.8V10.3z"/>
<path class="st0" d="M444.6,0h10.8c1.9,0,3.7,0.4,5.4,1.2c1.8,0.9,3.5,2.1,4.8,3.6c1.5,1.7,2.7,3.7,3.5,5.9c1,2.6,1.4,5.3,1.4,8.1
	v22.6c0.2,5.3,1.4,9.4,3.7,12.3s5.1,4.4,8.3,4.4v11.2c-3.2,0-6,1.5-8.3,4.4c-2.3,3-3.5,7.1-3.7,12.3v19.2c0.1,3.3-0.4,6.7-1.4,9.9
	c-0.7,2.5-1.9,4.8-3.5,6.8c-1.3,1.7-2.9,3-4.8,3.9c-1.7,0.8-3.5,1.3-5.4,1.3h-10.8V117h6.4c1.3,0.1,2.5-0.3,3.5-1.1
	c1-0.8,1.7-1.8,2.2-2.9c0.6-1.3,1-2.6,1.2-4c0.2-1.4,0.4-2.9,0.4-4.4V83.1c-0.2-3.1,0.2-6.2,1.2-9.1c0.7-2.1,1.9-4.1,3.4-5.8
	c1.2-1.3,2.6-2.4,4.1-3.2c1.1-0.6,2.2-0.9,3.4-1.2v-0.4c-1.2-0.3-2.3-0.8-3.4-1.4c-1.6-0.9-2.9-2.1-4.1-3.4
	c-1.4-1.7-2.6-3.6-3.4-5.7c-1-2.7-1.4-5.6-1.2-8.5V22.8c0-1.5-0.1-3-0.4-4.5c-0.2-1.4-0.6-2.7-1.2-4c-0.5-1.1-1.3-2.1-2.2-2.9
	c-1-0.8-2.3-1.1-3.5-1.1h-6.5L444.6,0L444.6,0z"/>
<g>
	<path class="st0" d="M43.2,85.2H58v2.1H45.5v8.8h11.7v2.1H45.5V110h-2.3V85.2z"/>
	<path class="st0" d="M80.3,100.5c0,1.3-0.2,2.6-0.5,3.8c-0.3,1.2-0.8,2.3-1.5,3.2c-0.7,0.9-1.6,1.7-2.8,2.2s-2.6,0.8-4.3,0.8
		c-1.7,0-3.1-0.3-4.3-0.8s-2.1-1.3-2.8-2.2c-0.7-0.9-1.2-2-1.5-3.2c-0.3-1.2-0.5-2.5-0.5-3.8V85.2h2.3V100c0,0.9,0.1,1.8,0.2,2.8
		c0.2,1,0.5,1.9,1,2.8c0.5,0.9,1.2,1.6,2,2.1c0.9,0.6,2,0.8,3.5,0.8c1.4,0,2.6-0.3,3.5-0.8c0.9-0.6,1.6-1.3,2-2.1
		c0.5-0.9,0.8-1.8,1-2.8c0.2-1,0.2-2,0.2-2.8V85.2h2.3V100.5z"/>
	<path class="st0" d="M86.6,85.2h2.3v22.7h11.6v2.1H86.6V85.2z"/>
	<path class="st0" d="M104.1,85.2h2.3v22.7H118v2.1h-13.9V85.2z"/>
	<path class="st0" d="M131.4,105.5c0.6,1.1,1.4,1.8,2.4,2.3c1,0.5,2.1,0.8,3.3,0.8c0.8,0,1.5-0.1,2.2-0.3c0.7-0.2,1.3-0.6,1.8-1
		c0.5-0.4,0.9-0.9,1.2-1.5c0.3-0.6,0.4-1.3,0.4-2c0-0.9-0.2-1.6-0.5-2.1c-0.4-0.6-0.8-1-1.5-1.4c-0.6-0.4-1.3-0.7-2-0.9
		c-0.8-0.3-1.5-0.5-2.3-0.8c-0.8-0.3-1.6-0.5-2.3-0.9c-0.8-0.3-1.4-0.8-2-1.3c-0.6-0.5-1.1-1.2-1.5-2c-0.4-0.8-0.5-1.8-0.5-2.9
		c0-1.1,0.2-2.1,0.6-2.9c0.4-0.9,1-1.6,1.8-2.1s1.6-1,2.5-1.3c1-0.3,2-0.4,3-0.4c1.4,0,2.6,0.2,3.8,0.7c1.2,0.5,2.2,1.3,3,2.4
		l-2,1.4c-0.6-0.8-1.3-1.4-2-1.8c-0.8-0.4-1.7-0.6-2.8-0.6c-0.7,0-1.5,0.1-2.1,0.3c-0.7,0.2-1.3,0.5-1.8,0.9
		c-0.5,0.4-0.9,0.9-1.2,1.5c-0.3,0.6-0.5,1.3-0.5,2.1c0,1.2,0.3,2.2,0.9,2.9c0.6,0.7,1.4,1.2,2.4,1.6c0.9,0.4,2,0.7,3.1,1
		c1.1,0.3,2.1,0.7,3.1,1.2c0.9,0.5,1.7,1.2,2.4,2c0.6,0.9,0.9,2.1,0.9,3.6c0,1.1-0.2,2.1-0.6,3c-0.4,0.9-1,1.6-1.7,2.2
		c-0.7,0.6-1.5,1-2.5,1.3c-0.9,0.3-1.9,0.5-2.9,0.5c-1.6,0-3.1-0.3-4.5-0.9c-1.4-0.6-2.6-1.5-3.5-2.9L131.4,105.5z"/>
	<path class="st0" d="M155.7,87.3h-8.5v-2.1h19.3v2.1H158V110h-2.3V87.3z"/>
	<path class="st0" d="M175.6,85.2h2.4l10.4,24.8h-2.6l-2.7-6.6H170l-2.8,6.6h-2.4L175.6,85.2z M176.7,87.8l-5.8,13.6h11.4
		L176.7,87.8z"/>
	<path class="st0" d="M212.4,106.2c-1.2,1.6-2.6,2.8-4.1,3.5c-1.6,0.7-3.3,1.1-5.1,1.1c-1.9,0-3.6-0.3-5.2-1c-1.6-0.6-2.9-1.5-4-2.7
		c-1.1-1.2-2-2.5-2.6-4.1c-0.6-1.6-0.9-3.3-0.9-5.2s0.3-3.6,0.9-5.2c0.6-1.6,1.5-3,2.6-4.1c1.1-1.2,2.5-2.1,4-2.7
		c1.6-0.7,3.3-1,5.2-1c1.7,0,3.3,0.3,4.7,0.9c1.5,0.6,2.7,1.6,3.8,3l-1.9,1.6c-0.8-1.2-1.8-2-3-2.6c-1.2-0.5-2.4-0.8-3.7-0.8
		c-1.6,0-3.1,0.3-4.4,0.8c-1.3,0.6-2.4,1.3-3.3,2.3c-0.9,1-1.6,2.1-2.1,3.5c-0.5,1.3-0.7,2.8-0.7,4.3c0,1.5,0.2,3,0.7,4.3
		c0.5,1.3,1.2,2.5,2.1,3.5c0.9,1,2,1.8,3.3,2.3c1.3,0.6,2.7,0.8,4.4,0.8c0.6,0,1.3-0.1,2-0.2c0.7-0.2,1.3-0.4,2-0.7
		c0.6-0.3,1.3-0.7,1.8-1.2c0.6-0.5,1.1-1.1,1.5-1.7L212.4,106.2z"/>
	<path class="st0" d="M216.6,85.2h2.3v10.9h0.2l12-10.9h3.2l-12.5,11.4l13.2,13.5h-3.3l-12.6-12.8h-0.2V110h-2.3V85.2z"/>
	<path class="st0" d="M246.8,85.2h7.7c2.1,0,4,0.3,5.5,0.8c1.5,0.5,2.7,1.2,3.7,2c1,0.8,1.8,1.7,2.3,2.7c0.6,1,1,1.9,1.3,2.9
		c0.3,0.9,0.4,1.7,0.5,2.5c0.1,0.7,0.1,1.3,0.1,1.6s0,0.8-0.1,1.6c-0.1,0.7-0.2,1.6-0.5,2.5c-0.3,0.9-0.7,1.9-1.3,2.9
		c-0.6,1-1.4,1.9-2.3,2.7c-1,0.8-2.2,1.5-3.7,2c-1.5,0.5-3.3,0.8-5.5,0.8h-7.7V85.2z M249.1,107.9h4.8c1.6,0,3.2-0.2,4.6-0.6
		c1.4-0.4,2.7-1,3.7-1.9c1.1-0.8,1.9-1.9,2.5-3.2c0.6-1.3,0.9-2.8,0.9-4.6c0-1.8-0.3-3.3-0.9-4.6c-0.6-1.3-1.4-2.4-2.5-3.2
		c-1.1-0.8-2.3-1.5-3.7-1.9c-1.4-0.4-3-0.6-4.6-0.6h-4.8V107.9z"/>
	<path class="st0" d="M273.1,85.2h15.2v2.1h-12.9v8.8h12.1v2.1h-12.1v9.7h13.4v2.1h-15.7V85.2z"/>
	<path class="st0" d="M290.4,85.2h2.5l8,21.8l8.1-21.8h2.5l-9.4,24.8h-2.3L290.4,85.2z"/>
	<path class="st0" d="M314.6,85.2h15.2v2.1H317v8.8H329v2.1H317v9.7h13.4v2.1h-15.7V85.2z"/>
	<path class="st0" d="M335.4,85.2h2.3v22.7h11.6v2.1h-13.9V85.2z"/>
	<path class="st0" d="M351.3,97.6c0-1.9,0.3-3.6,0.9-5.2s1.5-3,2.6-4.1s2.5-2.1,4-2.7c1.6-0.7,3.3-1,5.2-1c1.9,0,3.6,0.3,5.2,1
		c1.6,0.7,2.9,1.6,4,2.7c1.1,1.2,2,2.5,2.6,4.1s0.9,3.3,0.9,5.2s-0.3,3.6-0.9,5.2c-0.6,1.6-1.5,3-2.6,4.1c-1.1,1.2-2.5,2.1-4,2.7
		c-1.6,0.6-3.3,1-5.2,1c-1.9,0-3.6-0.3-5.2-1c-1.6-0.6-2.9-1.5-4-2.7s-2-2.5-2.6-4.1C351.6,101.3,351.3,99.5,351.3,97.6z
		 M353.6,97.6c0,1.5,0.2,3,0.7,4.3c0.5,1.3,1.2,2.5,2.1,3.5s2,1.8,3.3,2.3c1.3,0.6,2.7,0.8,4.4,0.8c1.6,0,3.1-0.3,4.4-0.8
		c1.3-0.6,2.4-1.3,3.3-2.3c0.9-1,1.6-2.1,2.1-3.5c0.5-1.3,0.7-2.8,0.7-4.3c0-1.5-0.2-3-0.7-4.3c-0.5-1.3-1.2-2.5-2.1-3.5
		c-0.9-1-2-1.8-3.3-2.3c-1.3-0.6-2.7-0.8-4.4-0.8c-1.6,0-3.1,0.3-4.4,0.8c-1.3,0.6-2.4,1.3-3.3,2.3c-0.9,1-1.6,2.1-2.1,3.5
		C353.9,94.7,353.6,96.1,353.6,97.6z"/>
	<path class="st0" d="M382.2,85.2h7.1c0.9,0,1.8,0.1,2.7,0.3c0.9,0.2,1.8,0.5,2.6,1c0.8,0.5,1.4,1.2,1.9,2c0.5,0.9,0.8,1.9,0.8,3.2
		c0,1.1-0.2,2.1-0.6,2.9c-0.4,0.8-1,1.5-1.6,2c-0.7,0.5-1.5,0.9-2.4,1.2c-0.9,0.3-1.8,0.4-2.8,0.4h-5.4V110h-2.3V85.2z M384.5,96.2
		h5.3c0.7,0,1.3-0.1,1.9-0.2c0.6-0.2,1.2-0.4,1.7-0.7c0.5-0.3,0.9-0.8,1.2-1.3c0.3-0.6,0.5-1.2,0.5-2.1c0-0.8-0.2-1.5-0.5-2
		c-0.3-0.6-0.7-1-1.2-1.4c-0.5-0.4-1.1-0.6-1.7-0.8c-0.7-0.2-1.3-0.2-2-0.2h-5.1V96.2z"/>
	<path class="st0" d="M402.3,85.2h15.2v2.1h-12.9v8.8h12.1v2.1h-12.1v9.7H418v2.1h-15.7V85.2z"/>
	<path class="st0" d="M423,85.2h6.5c0.3,0,0.8,0,1.3,0c0.6,0,1.2,0.1,1.8,0.2c0.7,0.1,1.3,0.3,2,0.6c0.7,0.3,1.3,0.6,1.8,1.1
		c0.5,0.5,1,1.1,1.3,1.9c0.3,0.7,0.5,1.7,0.5,2.7c0,1.2-0.2,2.2-0.6,2.9c-0.4,0.8-0.9,1.4-1.5,1.9c-0.6,0.5-1.3,0.8-2,1.1
		c-0.7,0.2-1.5,0.4-2.1,0.5l7.2,11.9h-2.6l-7-11.8h-4.3V110H423V85.2z M425.3,96.2h4.9c1.2,0,2.2-0.2,3-0.5c0.8-0.3,1.3-0.7,1.8-1.1
		c0.4-0.4,0.7-0.9,0.9-1.4c0.2-0.5,0.2-1,0.2-1.4s-0.1-0.9-0.2-1.4c-0.2-0.5-0.4-1-0.9-1.4c-0.4-0.4-1-0.8-1.8-1.1
		c-0.8-0.3-1.7-0.5-3-0.5h-4.9V96.2z"/>
</g>
</svg>
